<?xml version="1.0" encoding="utf-8"?>
<!-- Generator: Adobe Illustrator 23.0.0, SVG Export Plug-In . SVG Version: 6.00 Build 0)  -->
<svg version="1.1" id="레이어_1" focusable="false"
	 xmlns="http://www.w3.org/2000/svg" xmlns:xlink="http://www.w3.org/1999/xlink" x="0px" y="0px" viewBox="0 0 48 48"
	 style="enable-background:new 0 0 48 48;" xml:space="preserve">
<style type="text/css">
	.st0{fill:#FFFFFF;}
</style>
<path class="st0" d="M42.9,0H5.1C2.3,0,0,2.3,0,5.1v37.7C0,45.7,2.3,48,5.1,48h37.7c2.8,0,5.1-2.3,5.1-5.1V5.1C48,2.3,45.7,0,42.9,0
	z M29.7,41.1c-0.9,0.2-1.2-0.4-1.2-0.9c0-0.6,0-3.5,0-5.9c0-1.7-0.6-2.7-1.2-3.3c4-0.4,8.1-1,8.1-7.8c0-2-0.7-2.9-1.8-4.2
	c0.2-0.5,0.8-2.4-0.2-4.8c-1.5-0.5-4.9,1.9-4.9,1.9c-1.4-0.4-2.9-0.6-4.5-0.6s-3,0.2-4.5,0.6c0,0-3.4-2.4-4.9-1.9
	c-1,2.5-0.4,4.4-0.2,4.8c-1.1,1.3-1.7,2.2-1.7,4.2c0,6.8,4,7.4,8,7.8c-0.5,0.5-1,1.3-1.1,2.4c-1,0.5-3.6,1.3-5.2-1.5
	c-1-1.7-2.7-1.8-2.7-1.8c-1.7,0-0.1,1.1-0.1,1.1c1.2,0.5,2,2.6,2,2.6c1,3.2,6,2.1,6,2.1c0,1.5,0,3.9,0,4.3c0,0.5-0.3,1-1.2,0.9
	c-7.1-2.4-12-9.1-12-17c0-9.8,7.5-17.3,17.4-17.3s17.8,7.5,17.8,17.3C41.6,32,36.8,38.8,29.7,41.1z M19.2,34.6c-0.2,0-0.4,0-0.4-0.2
	c0-0.2,0.1-0.3,0.3-0.3c0.2,0,0.4,0.1,0.4,0.2C19.6,34.4,19.4,34.5,19.2,34.6L19.2,34.6z M18.2,34.5c0,0.1-0.2,0.3-0.4,0.3
	c-0.2,0-0.4-0.1-0.4-0.3c0-0.1,0.2-0.3,0.4-0.3C18,34.2,18.2,34.3,18.2,34.5z M16.7,34.4c0,0.1-0.3,0.2-0.4,0.1
	c-0.2,0-0.3-0.2-0.3-0.3c0-0.1,0.3-0.2,0.4-0.2C16.6,34,16.8,34.2,16.7,34.4L16.7,34.4z M15.4,33.8c-0.1,0.1-0.3,0.1-0.5-0.1
	c-0.2-0.1-0.2-0.3-0.1-0.4c0.1-0.1,0.3-0.1,0.5,0.1C15.4,33.5,15.5,33.7,15.4,33.8z M14.4,32.8c-0.1,0.1-0.3,0-0.4-0.2
	s-0.1-0.3,0-0.4c0.1-0.1,0.3,0,0.4,0.1C14.5,32.5,14.5,32.7,14.4,32.8z M13.7,31.8c-0.1,0.1-0.3,0-0.4-0.1c-0.1-0.1-0.1-0.3,0-0.4
	c0.1-0.1,0.3,0,0.4,0.1C13.8,31.5,13.8,31.7,13.7,31.8z M13,31c0,0.1-0.2,0.1-0.3,0c-0.1-0.1-0.2-0.2-0.2-0.3c0-0.1,0.2-0.1,0.3,0
	C13,30.8,13,30.9,13,31z"/>
</svg>
