<?xml version="1.0" encoding="utf-8"?>
<!-- Generator: Adobe Illustrator 23.0.0, SVG Export Plug-In . SVG Version: 6.00 Build 0)  -->
<svg version="1.1" id="Layer_1" xmlns="http://www.w3.org/2000/svg" xmlns:xlink="http://www.w3.org/1999/xlink" x="0px" y="0px"
	 viewBox="0 0 136.1 136.1" style="enable-background:new 0 0 136.1 136.1;" xml:space="preserve">
<style type="text/css">
	.st0{fill:#FFFFFF;}
</style>
<g>
	<path class="st0" d="M114.3,0H21.8C9.7,0,0,9.7,0,21.8v92.5c0,12,9.7,21.8,21.8,21.8h92.5c12,0,21.8-9.7,21.8-21.8V21.8
		C136.1,9.7,126.3,0,114.3,0z M68,102c-2.9,0-8.5-0.6-8.5-0.6l-20.9,13.8c-0.8,0.5-1.8-0.2-1.7-1.1l3.5-18.8
		c-12.8-7-21.1-18.6-21.1-31.9C19.4,42,41.2,24.7,68,24.7c26.9,0,48.6,17.3,48.6,38.7C116.7,84.7,94.9,102,68,102z"/>
	<path class="st0" d="M50.7,55c0-1.3-1.1-2.4-2.4-2.4h-14c-1.3,0-2.4,1.1-2.4,2.4c0,1.3,1.1,2.4,2.4,2.4h4.6v16.9
		c0,0.6,0.2,1.2,0.7,1.7c0.4,0.4,1,0.7,1.6,0.7h0.5c0.6,0,1.2-0.2,1.6-0.7c0.4-0.4,0.7-1,0.7-1.7V57.4h4.3
		C49.7,57.4,50.7,56.3,50.7,55z"/>
	<path class="st0" d="M81.1,72.1h-6.5V54.9c0-1.4-1.2-2.6-2.6-2.6c-1.4,0-2.6,1.2-2.6,2.6v18.6c0,0.1,0,0.7,0,0.8
		c0,1.2,1,2.2,2.2,2.2h9.5c1.2,0,2.2-1,2.2-2.2C83.3,73.1,82.3,72.1,81.1,72.1z"/>
	<path class="st0" d="M94.8,63.3l6.6-6.6c0.9-0.9,0.9-2.3,0-3.2c-0.9-0.9-2.3-0.9-3.2,0L90,61.7v-6.8c0-1.4-1.2-2.6-2.6-2.6
		c-1.4,0-2.6,1.2-2.6,2.6v19.2c0,1.4,1.2,2.6,2.6,2.6c1.4,0,2.6-1.2,2.6-2.6v-5.9l1.5-1.5l6.9,9.1c0.8,1,2.2,1.2,3.2,0.5
		c1-0.8,1.2-2.2,0.5-3.3L94.8,63.3z"/>
	<path class="st0" d="M60.9,54.3C60.9,54.3,60.9,54.3,60.9,54.3c-0.5-1.2-1.8-2-3.3-2c-0.4,0-0.8,0.1-1.1,0.2
		c-0.3,0.1-0.7,0.2-1,0.4c-0.3,0.2-0.5,0.4-0.8,0.7c-0.1,0.2-0.3,0.4-0.4,0.6c-0.1,0.2-0.4,1.2-0.5,1.5c0,0.1-0.1,0.2-0.1,0.3
		c0,0.1-0.1,0.3-0.1,0.4c-0.1,0.1-0.1,0.3-0.2,0.4c-0.1,0.2-0.1,0.3-0.2,0.5c-0.1,0.2-0.1,0.4-0.2,0.5c-0.1,0.2-0.1,0.4-0.2,0.6
		c-0.1,0.2-0.2,0.4-0.2,0.6c-0.1,0.2-0.2,0.4-0.2,0.7c-0.1,0.2-0.2,0.5-0.3,0.7c-0.1,0.2-0.2,0.5-0.3,0.7c-0.1,0.2-0.2,0.5-0.3,0.7
		c-0.1,0.3-0.2,0.5-0.3,0.8c-0.1,0.3-0.2,0.5-0.3,0.8c-0.1,0.3-0.2,0.5-0.3,0.8c-0.1,0.3-0.2,0.5-0.3,0.8c-0.1,0.3-0.2,0.5-0.3,0.8
		c-0.1,0.3-0.2,0.5-0.3,0.8c-0.1,0.2-0.2,0.5-0.3,0.7c-0.1,0.2-0.2,0.5-0.3,0.7c-0.1,0.2-0.2,0.5-0.3,0.7c-0.1,0.2-0.2,0.5-0.3,0.7
		c-0.1,0.2-0.2,0.4-0.2,0.6c-0.1,0.2-0.2,0.4-0.2,0.6c-0.1,0.2-0.1,0.4-0.2,0.6c-0.1,0.2-0.1,0.3-0.2,0.5c-0.1,0.2-0.1,0.3-0.2,0.5
		c-0.1,0.1-0.1,0.3-0.2,0.4c0,0.1-0.1,0.2-0.1,0.4c0,0.1-0.1,0.2-0.1,0.3c0,0.1-0.1,0.2-0.1,0.2c0,0.1,0,0.1-0.1,0.2c0,0,0,0,0,0.1
		c-0.4,1.2,0.2,2.5,1.4,3c1.2,0.4,2.5-0.2,3-1.4l1.2-3.4h9.6l1.2,3.4c0.4,1.2,1.7,1.9,3,1.4c1.2-0.4,1.8-1.8,1.4-3L60.9,54.3z
		 M54.3,67.3l3.2-9.2c0,0,0.1,0,0.1,0l3.2,9.2H54.3z"/>
</g>
</svg>
